# xmcd
#
# Track frame offsets:
#	150
#	15264
#	31847
#	51198
#	68966
#	86195
#	103787
#	118241
#	128584
#	144590
#	159426
#	173858
#	187699
#	202688
#	218850
#	236611
#	252373
#	265850
#	282532
#	299105
#
# Disc length: 4220 seconds
# Revision: 0
# Processed by: cddbd v1.5.2PL0 Copyright (c) Steve Scherf et al.
# Submitted via: dBpowerAMP V12.0
#
DISCID=26107a14
DTITLE=Various Artist - Country to Country Volume 2
DYEAR=2016
DGENRE=Country
TTITLE0=Carrie Underwood - Smoke Break
TTITLE1=Dierks Bentley - Say You Do
TTITLE2=Dwight Yoakam - Man of Constant Sorrow
TTITLE3=Miranda Lambert - Automatic
TTITLE4=Ashley Monroe - On to Something Good
TTITLE5=Andrew Combs - Nothing to Lose
TTITLE6=Luke Bryan - Kick the Dust Up
TTITLE7=Kip Moore - I'm to Blame
TTITLE8=Little Big Town - Pontoon
TTITLE9=The Shires - All Over Again
TTITLE10=David Nail - Nights on Fire
TTITLE11=Frankie Ballard - Sunshine and Whiskey
TTITLE12=Maren Morris - My Church
TTITLE13=Lori McKenna - The Time I've Wasted
TTITLE14=Callaghan - Best Year
TTITLE15=Old Dominion - Break Up With Him
TTITLE16=Kacey Musgraves - High Time
TTITLE17=Chris Stapleton - Traveller
TTITLE18=Maddie and Tae - Fly
TTITLE19=Sam Hunt - Break Up in a Small Town
EXTD=
EXTT0=
EXTT1=
EXTT2=
EXTT3=
EXTT4=
EXTT5=
EXTT6=
EXTT7=
EXTT8=
EXTT9=
EXTT10=
EXTT11=
EXTT12=
EXTT13=
EXTT14=
EXTT15=
EXTT16=
EXTT17=
EXTT18=
EXTT19=
PLAYORDER=
